# Blender v2.92.0 OBJ File: 'proje-2.1.blend'
# www.blender.org
mtllib solar-panel2.mtl
o objSolar
v 0.259240 0.420217 -0.698532
v -0.259243 0.420218 -0.698533
v -0.259242 0.420218 -1.365149
v 0.259242 0.420218 -1.365149
v 0.865742 2.340109 -0.111490
v -0.865743 2.340109 -0.111491
v -0.865743 2.355731 -0.092014
v 0.865743 2.355731 -0.092012
v 0.827092 2.311830 -0.073429
v -0.827093 2.311831 -0.073430
v -0.827092 0.503284 1.327851
v 0.827093 0.503284 1.327851
v 0.865741 0.474284 1.365689
v -0.865743 0.474284 1.365688
v -0.865743 0.458661 1.346210
v 0.865741 0.458660 1.346211
v -0.827092 2.319281 -0.063804
v 0.827091 2.319281 -0.063804
v -0.827092 0.510733 1.337479
v 0.827093 0.510733 1.337479
v 0.865741 0.416470 1.293613
v -0.865743 0.416471 1.293612
v -0.202008 1.102425 0.762741
v 0.202007 1.102425 0.762741
v -0.865743 2.297922 -0.164086
v -0.202008 1.273494 0.630340
v 0.865741 2.297922 -0.164086
v 0.202007 1.273494 0.630340
v -0.202008 0.488359 -0.757600
v 0.202005 0.488358 -0.757599
v -0.202006 0.485195 -1.307163
v 0.202007 0.485195 -1.307163
v 0.865741 0.432607 1.313731
v -0.865743 0.432608 1.313730
v 0.865742 2.314058 -0.143969
v -0.865743 2.314058 -0.143969
v 0.877209 0.449715 1.353387
v -0.877211 0.449715 1.353385
v -0.881961 0.431965 1.338848
v 0.881959 0.431964 1.338849
v 0.877210 2.349054 -0.118665
v 0.881960 2.338716 -0.139146
v -0.881961 2.338716 -0.139147
v -0.877211 2.349055 -0.118666
v -0.877211 0.423662 1.320905
v 0.877209 0.423662 1.320906
v 0.877209 2.323003 -0.151144
v -0.877211 2.323003 -0.151145
v -0.259243 0.488807 -0.699074
v 0.259240 0.488806 -0.699072
v -0.259241 0.484747 -1.365689
v 0.259242 0.484747 -1.365689
vt 0.375000 0.000000
vt 0.625000 0.250000
vt 0.375000 0.250000
vt 0.625000 0.000000
vt 0.375000 0.000000
vt 0.625000 0.000000
vt 0.625000 0.250000
vt 0.375000 0.250000
vt 0.375000 0.000000
vt 0.625000 0.250000
vt 0.625000 0.000000
vt 0.375000 0.250000
vt 0.625000 0.432440
vt 0.375000 0.500000
vt 0.375000 0.432440
vt 0.625000 0.750000
vt 0.375000 0.817560
vt 0.375000 0.750000
vt 0.807440 0.250000
vt 0.875000 0.000000
vt 0.875000 0.250000
vt 0.125000 0.000000
vt 0.192560 0.250000
vt 0.125000 0.250000
vt 0.625000 0.500000
vt 0.375000 0.500000
vt 0.375000 0.500000
vt 0.625000 0.750000
vt 0.625000 0.500000
vt 0.375000 0.750000
vt 0.625000 0.750000
vt 0.375000 0.750000
vt 0.625000 0.000000
vt 0.375000 0.000000
vt 0.625000 0.250000
vt 0.375000 0.250000
vt 0.625000 0.930221
vt 0.375000 1.000000
vt 0.375000 0.930221
vt 0.305221 0.000000
vt 0.375000 0.250000
vt 0.305221 0.250000
vt 0.625000 0.319779
vt 0.375000 0.319779
vt 0.694780 0.000000
vt 0.625000 0.250000
vt 0.625000 0.000000
vt 0.625000 0.500000
vt 0.625000 0.817560
vt 0.807440 0.000000
vt 0.192560 0.000000
vt 0.625000 1.000000
vt 0.375000 0.000000
vt 0.694780 0.250000
vt 0.375000 0.817560
vt 0.625000 0.878294
vt 0.375000 0.878294
vt 0.192560 0.000000
vt 0.253294 0.250000
vt 0.192560 0.250000
vt 0.375000 0.371706
vt 0.625000 0.432440
vt 0.375000 0.432440
vt 0.746706 0.250000
vt 0.807440 0.000000
vt 0.807440 0.250000
vt 0.375000 0.930221
vt 0.253294 0.000000
vt 0.305221 0.250000
vt 0.625000 0.319779
vt 0.375000 0.319779
vt 0.694780 0.250000
vt 0.746706 0.000000
vt 0.625000 0.930221
vt 0.305221 0.000000
vt 0.625000 0.817560
vt 0.625000 0.371706
vt 0.694780 0.000000
vt 0.063031 0.041443
vt 0.936969 0.958557
vt 0.063030 0.958557
vt 0.936970 0.041443
vn 0.0000 -1.0000 -0.0000
vn -0.0000 0.0079 1.0000
vn -1.0000 0.0000 -0.0000
vn 0.0000 -0.0084 -1.0000
vn 1.0000 -0.0000 0.0000
vn -0.0010 1.0000 -0.0067
vn 0.0007 1.0000 -0.0067
vn -0.0007 1.0000 -0.0067
vn -0.0006 0.9401 -0.3410
vn 0.0010 1.0000 -0.0067
vn 0.0005 0.9375 -0.3480
vn -0.0008 1.0000 -0.0069
vn 0.0008 1.0000 -0.0069
vn 0.0000 0.7801 -0.6257
vn -0.0000 -0.7801 0.6257
vn 0.0000 -0.7908 0.6121
vn 0.0000 0.7909 -0.6120
vn 0.0000 -0.9272 0.3745
vn -0.0000 -0.7908 0.6120
vn 0.0003 0.6122 0.7907
vn -0.0004 0.6123 0.7907
vn -0.0003 0.6122 0.7907
vn 0.0003 0.6123 0.7907
vn -0.0003 0.6123 0.7906
vn 0.0003 -0.6122 -0.7907
vn -0.0000 -0.6120 -0.7908
vn -0.0003 -0.6122 -0.7907
vn 0.0004 -0.6126 -0.7904
vn -0.0003 -0.6127 -0.7903
vn 0.0003 -0.6127 -0.7903
vn -0.0004 -0.6126 -0.7904
vn 0.0000 0.9263 -0.3769
vn -0.0000 -0.6336 0.7736
vn -0.0000 -0.7787 0.6273
vn -0.0000 -0.7784 0.6278
vn 0.9782 0.1273 0.1642
vn 1.0000 0.0025 0.0033
vn 0.9785 0.1264 0.1631
vn 0.0000 0.7814 -0.6240
vn 0.0000 0.8927 -0.4506
vn -1.0000 0.0026 0.0034
vn -0.9782 0.1273 0.1642
vn -0.9785 0.1264 0.1631
vn -0.0000 -0.9075 0.4200
vn 1.0000 0.0002 0.0003
vn 0.9705 -0.1478 -0.1907
vn 0.0000 0.6069 -0.7948
vn -0.9705 -0.1478 -0.1907
vn -1.0000 0.0002 0.0003
vn 0.0084 0.6180 0.7861
vn -0.0083 0.6181 0.7860
vn 0.0083 0.6180 0.7861
vn 0.0083 0.6181 0.7860
vn -0.0083 -0.6181 -0.7860
vn 0.0083 -0.6180 -0.7861
vn -0.0084 -0.6181 -0.7860
vn 0.0084 -0.6181 -0.7861
vn 0.0084 -0.6180 -0.7861
vn -0.0083 -0.6180 -0.7861
vn 0.0083 -0.6181 -0.7861
vn 0.0000 0.7817 -0.6236
vn 0.9709 -0.1466 -0.1892
vn -0.9709 -0.1466 -0.1892
vn 0.0000 0.6125 0.7905
usemtl blinn3SG
s off
f 1/1/1 3/2/1 4/3/1
f 49/4/2 1/1/2 50/5/2
f 49/4/3 3/2/3 2/6/3
f 51/7/4 4/3/4 3/2/4
f 50/5/5 4/3/5 52/8/5
f 1/1/1 2/6/1 3/2/1
f 49/4/2 2/6/2 1/1/2
f 49/4/3 51/7/3 3/2/3
f 51/7/4 52/8/4 4/3/4
f 50/5/5 1/1/5 4/3/5
s 1
f 30/9/6 49/4/7 50/5/8
f 31/10/9 49/4/7 29/11/10
f 32/12/11 51/7/12 31/10/9
f 32/12/11 50/5/8 52/8/13
f 30/9/6 29/11/10 49/4/7
f 31/10/9 51/7/12 49/4/7
f 32/12/11 52/8/13 51/7/12
f 32/12/11 30/9/6 50/5/8
usemtl blinn1SG
s off
f 6/13/14 8/14/14 5/15/14
f 14/16/15 16/17/15 13/18/15
f 6/19/3 14/20/3 7/21/3
f 13/22/5 5/23/5 8/24/5
f 17/25/16 9/26/16 18/27/16
f 17/25/5 11/28/5 10/29/5
f 20/30/17 11/28/17 19/31/17
f 18/27/3 12/32/3 20/30/3
f 23/33/18 30/9/18 24/34/18
f 26/35/3 29/11/3 23/33/3
f 28/36/5 30/9/5 32/12/5
f 34/37/15 21/38/15 33/39/15
f 33/40/5 27/41/5 35/42/5
f 27/41/14 36/43/14 35/44/14
f 34/45/3 25/46/3 22/47/3
f 6/13/14 7/48/14 8/14/14
f 14/16/15 15/49/15 16/17/15
f 6/19/3 15/50/3 14/20/3
f 13/22/5 16/51/5 5/23/5
f 17/25/19 10/29/19 9/26/19
f 17/25/5 19/31/5 11/28/5
f 20/30/17 12/32/17 11/28/17
f 18/27/3 9/26/3 12/32/3
f 23/33/18 29/11/18 30/9/18
f 26/35/3 31/10/3 29/11/3
f 28/36/5 24/34/5 30/9/5
f 34/37/15 22/52/15 21/38/15
f 33/40/5 21/53/5 27/41/5
f 27/41/14 25/46/14 36/43/14
f 34/45/3 36/54/3 25/46/3
s 1
f 7/48/20 18/27/21 8/14/22
f 14/16/22 17/25/23 7/48/20
f 13/18/20 19/31/24 14/16/22
f 8/14/22 20/30/23 13/18/20
f 22/47/25 24/34/26 21/53/27
f 22/47/25 26/35/28 23/33/26
f 27/41/29 26/35/28 25/46/30
f 21/53/27 28/36/31 27/41/29
f 28/36/32 31/10/9 26/35/32
f 37/55/33 39/56/34 40/57/35
f 37/58/36 42/59/37 41/60/38
f 42/61/39 44/62/40 41/63/40
f 43/64/41 38/65/42 44/66/43
f 39/56/34 46/67/44 40/57/35
f 40/68/45 47/69/46 42/59/37
f 48/70/47 42/61/39 47/71/47
f 48/72/48 39/73/49 43/64/41
f 15/49/50 37/55/51 16/17/51
f 16/51/51 41/60/52 5/23/50
f 6/13/51 41/63/52 44/62/51
f 6/19/51 38/65/53 15/50/50
f 34/37/54 46/67/55 45/74/56
f 35/42/54 46/75/55 33/40/57
f 36/43/58 47/71/59 35/44/54
f 34/45/54 48/72/60 36/54/58
f 7/48/20 17/25/23 18/27/21
f 14/16/22 19/31/24 17/25/23
f 13/18/20 20/30/23 19/31/24
f 8/14/22 18/27/21 20/30/23
f 22/47/25 23/33/26 24/34/26
f 22/47/25 25/46/30 26/35/28
f 27/41/29 28/36/31 26/35/28
f 21/53/27 24/34/26 28/36/31
f 28/36/32 32/12/11 31/10/9
f 37/55/33 38/76/33 39/56/34
f 37/58/36 40/68/45 42/59/37
f 42/61/39 43/77/61 44/62/40
f 43/64/41 39/73/49 38/65/42
f 39/56/34 45/74/44 46/67/44
f 40/68/45 46/75/62 47/69/46
f 48/70/47 43/77/61 42/61/39
f 48/72/48 45/78/63 39/73/49
f 15/49/50 38/76/53 37/55/51
f 16/51/51 37/58/51 41/60/52
f 6/13/51 5/15/50 41/63/52
f 6/19/51 44/66/51 38/65/53
f 34/37/54 33/39/57 46/67/55
f 35/42/54 47/69/59 46/75/55
f 36/43/58 48/70/60 47/71/59
f 34/45/54 45/78/56 48/72/60
usemtl blinn2SG
s off
f 9/79/64 11/80/64 12/81/64
f 9/79/64 10/82/64 11/80/64
